<svg width="44" height="36" viewBox="0 0 44 36" fill="none" xmlns="http://www.w3.org/2000/svg">
<mask id="mask0_2_13" style="mask-type:luminance" maskUnits="userSpaceOnUse" x="0" y="0" width="44" height="36">
<path d="M40 2H4C2.89543 2 2 2.89543 2 4V20C2 21.1046 2.89543 22 4 22H40C41.1046 22 42 21.1046 42 20V4C42 2.89543 41.1046 2 40 2Z" stroke="white" stroke-width="4" stroke-linecap="round" stroke-linejoin="round"/>
<path d="M10 14H34V22H10V14Z" fill="white" stroke="white" stroke-width="4" stroke-linecap="round" stroke-linejoin="round"/>
<path d="M30 8H34M22 28V34M14 30V32M30 30V32" stroke="white" stroke-width="4" stroke-linecap="round" stroke-linejoin="round"/>
</mask>
<g mask="url(#mask0_2_13)">
<path d="M-2 -6H46V42H-2V-6Z" fill="black"/>
</g>
</svg>
